# xmcd
#
# Track frame offsets:
#	150
#	8630
#	20825
#	31712
#	42747
#	55075
#	63672
#	76242
#	89160
#	98232
#	112312
#	124515
#	135375
#	144832
#
# Disc length: 2054 seconds
#
# Revision: 1
# Processed by: cddbd v1.4b42PL1 Copyright (c) Steve Scherf et al.
# Submitted via: audiograbber 1.80
#
DISCID=bc08040e
DTITLE=Jerry Lee Lewis - Great Balls Of Fire
DYEAR=1900
DGENRE=
TTITLE0=Great Balls of Fire
TTITLE1=Breathless
TTITLE2=Big Legged Woman
TTITLE3=High School Confidential
TTITLE4=Crazy Arms
TTITLE5=Wild One
TTITLE6=Rocket
TTITLE7=Whole Lotta Shakin' Goin' On
TTITLE8=Pumping Piano Rock
TTITLE9=That Lucky Old Sun (Just Rolls Around Heaven All Day)
TTITLE10=Good Rockin' Tonight
TTITLE11=Settin The Woods On Fire
TTITLE12=Hillbilly Feaver
TTITLE13=Old Black Joe
EXTD=
EXTT0=
EXTT1=
EXTT2=
EXTT3=
EXTT4=
EXTT5=
EXTT6=
EXTT7=
EXTT8=
EXTT9=
EXTT10=
EXTT11=
EXTT12=
EXTT13=
PLAYORDER=
